<svg width="20" height="20" viewBox="0 0 20 20" fill="none" xmlns="http://www.w3.org/2000/svg">
<path fill-rule="evenodd" clip-rule="evenodd" d="M4.99996 4.16667C4.09218 4.16667 3.33329 4.92556 3.33329 5.83333V12.5C3.33329 13.4078 4.09218 14.1667 4.99996 14.1667H6.66663C7.12686 14.1667 7.49996 14.5398 7.49996 15V16.0282L10.4045 14.2854C10.5341 14.2077 10.6823 14.1667 10.8333 14.1667H15C15.9077 14.1667 16.6666 13.4078 16.6666 12.5V5.83333C16.6666 4.92556 15.9077 4.16667 15 4.16667H4.99996ZM4.99996 2.5H15C16.8155 2.5 18.3333 4.01778 18.3333 5.83333V12.5C18.3333 14.3156 16.8155 15.8333 15 15.8333H11.0641L7.09537 18.2146C6.55023 18.5417 5.83329 18.1357 5.83329 17.5V15.8333H4.99996C3.1844 15.8333 1.66663 14.3156 1.66663 12.5V5.83333C1.66663 4.01778 3.1844 2.5 4.99996 2.5ZM5.83329 7.5C5.83329 7.03976 6.20639 6.66667 6.66663 6.66667H13.3333C13.7935 6.66667 14.1666 7.03976 14.1666 7.5C14.1666 7.96024 13.7935 8.33333 13.3333 8.33333H6.66663C6.20639 8.33333 5.83329 7.96024 5.83329 7.5ZM5.83329 10.8333C5.83329 10.3731 6.20639 10 6.66663 10H11.6666C12.1269 10 12.5 10.3731 12.5 10.8333C12.5 11.2936 12.1269 11.6667 11.6666 11.6667H6.66663C6.20639 11.6667 5.83329 11.2936 5.83329 10.8333Z" fill="#BFBDBD"/>
</svg>
