<svg width="24" height="24" viewBox="0 0 24 24" fill="none" xmlns="http://www.w3.org/2000/svg">
<path fill-rule="evenodd" clip-rule="evenodd" d="M12.0469 19.0469C15.9129 19.0469 19.0469 15.9129 19.0469 12.0469C19.0469 8.18088 15.9129 5.04688 12.0469 5.04688C8.18088 5.04688 5.04688 8.18088 5.04688 12.0469C5.04688 15.9129 8.18088 19.0469 12.0469 19.0469ZM12.0469 21.0469C17.0174 21.0469 21.0469 17.0174 21.0469 12.0469C21.0469 7.07631 17.0174 3.04688 12.0469 3.04688C7.07631 3.04688 3.04688 7.07631 3.04688 12.0469C3.04688 17.0174 7.07631 21.0469 12.0469 21.0469Z" fill="#121212"/>
<path d="M11 12.1875C11 11.6266 11.4547 11.1719 12.0156 11.1719C12.5765 11.1719 13.0312 11.6266 13.0312 12.1875V15.2344C13.0312 15.7953 12.5765 16.25 12.0156 16.25C11.4547 16.25 11 15.7953 11 15.2344V12.1875Z" fill="#121212"/>
<path d="M13.0312 9.14062C13.0312 9.70154 12.5765 10.1562 12.0156 10.1562C11.4547 10.1562 11 9.70154 11 9.14062C11 8.57971 11.4547 8.125 12.0156 8.125C12.5765 8.125 13.0312 8.57971 13.0312 9.14062Z" fill="#121212"/>
</svg>
